<?xml version="1.0" standalone="no"?>
<!DOCTYPE svg PUBLIC "-//W3C//DTD SVG 20010904//EN"
 "http://www.w3.org/TR/2001/REC-SVG-20010904/DTD/svg10.dtd">
<svg version="1.0" xmlns="http://www.w3.org/2000/svg"
 width="700.000000pt" height="700.000000pt" viewBox="0 0 700.000000 700.000000"
 preserveAspectRatio="xMidYMid meet">
<metadata>
Created by potrace 1.11, written by Peter Selinger 2001-2013
</metadata>
<g transform="translate(0.000000,700.000000) scale(0.100000,-0.100000)"
fill="#000000" stroke="none">
<path d="M2730 6403 c-318 -41 -602 -179 -828 -401 -55 -53 -119 -124 -143
-157 -24 -33 -46 -62 -50 -65 -3 -3 -22 -32 -41 -65 -107 -177 -183 -400 -204
-595 -3 -30 -9 -58 -12 -61 -11 -10 -123 -46 -167 -54 -84 -14 -319 -14 -395
0 -87 17 -224 58 -266 80 -16 8 -32 11 -36 7 -10 -10 15 -165 42 -262 58 -206
196 -410 360 -531 170 -126 420 -204 684 -213 54 -2 72 -7 83 -22 22 -30 44
-113 50 -189 11 -149 -48 -284 -256 -580 -241 -344 -332 -533 -366 -760 -4
-22 -8 -51 -11 -65 -6 -36 -5 -265 2 -335 8 -93 42 -248 75 -347 143 -431 503
-738 1011 -862 91 -22 137 -30 258 -44 84 -10 1945 -8 2030 2 462 53 850 292
1169 722 211 285 392 666 525 1107 32 104 91 325 102 382 32 164 44 227 49
265 4 25 10 64 15 88 7 41 7 42 -9 25 -9 -10 -24 -30 -34 -45 -27 -43 -142
-133 -213 -167 -95 -45 -176 -64 -295 -66 -171 -4 -354 41 -555 135 -151 71
-286 131 -364 162 -77 31 -329 115 -365 122 -11 3 -65 16 -120 30 -91 23 -248
56 -335 70 -19 3 -44 8 -55 10 -11 2 -45 7 -75 10 -30 4 -66 8 -80 10 -14 3
-52 7 -85 11 -33 4 -61 8 -63 9 -1 2 28 28 66 59 126 102 282 280 340 387 116
219 148 304 187 510 20 106 23 337 6 437 -6 32 -13 74 -16 93 -9 55 -38 154
-65 225 -19 52 -76 172 -87 186 -7 8 -13 19 -13 23 0 29 -161 235 -251 321
-128 122 -215 183 -369 261 -249 124 -549 174 -830 137z m-151 -874 c75 -17
149 -59 206 -116 169 -168 174 -431 13 -605 -146 -157 -382 -184 -564 -63
-225 148 -254 474 -61 667 107 107 259 151 406 117z"/>
</g>
</svg>
